<?xml version="1.0" standalone="no"?><!DOCTYPE svg PUBLIC "-//W3C//DTD SVG 1.1//EN" "http://www.w3.org/Graphics/SVG/1.1/DTD/svg11.dtd"><svg t="1525228859424" class="icon" style="" viewBox="0 0 1024 1024" version="1.1" xmlns="http://www.w3.org/2000/svg" p-id="2434" xmlns:xlink="http://www.w3.org/1999/xlink" width="200" height="200"><defs><style type="text/css"></style></defs><path d="M643.741463 425.936879c48.924269-39.563064 80.217996-100.063997 80.217996-167.883615 0-119.187543-96.620571-215.807091-215.807091-215.807091s-215.807091 96.620571-215.807091 215.807091c0 70.774927 34.069957 133.591601 86.702688 172.945911-125.351939 43.853787-218.120786 161.64554-218.120786 389.368008 0 37.59627 12.735046 42.537815 149.042501 42.537815 48.641837 0 113.039519-0.630357 198.182688-0.630357 102.618169 0 176.999227 1.166569 230.823086 1.166569 119.801527 0 137.656173-5.782703 137.656173-43.074028C876.631628 578.121953 789.400914 464.202391 643.741463 425.936879zM508.152369 106.981547c83.301218 0 151.071717 67.7705 151.071717 151.071717s-67.7705 151.071717-151.071717 151.071717-151.071717-67.7705-151.071717-151.071717S424.852174 106.981547 508.152369 106.981547zM738.975455 798.705837c-22.462594 0-48.529273-0.205685-78.764901-0.442068-42.158169-0.330528-92.343151-0.723477-152.058185-0.723477-48.613184 0-90.479711 0.204661-126.524648 0.381693-27.057239 0.132006-50.810223 0.248663-71.657017 0.248663-19.688411 0-58.048067 0-83.932598-1.614777 6.724145-210.395848 103.918791-321.387731 282.115286-321.387731 153.34755 0 295.571762 39.498596 303.365262 321.908594C787.664364 798.705837 753.10015 798.705837 738.975455 798.705837z" p-id="2435"></path><path d="M244.149603 475.728912l8.321526 0c16.645099-4.160763 24.966625-16.644075 24.966625-33.288151 0-16.645099-8.321526-29.128411-24.966625-33.289174-37.449937-16.644075-62.416562-54.094012-62.416562-95.705736 0-49.933249 29.128411-87.382163 74.898851-104.026238 8.322549-24.966625 20.805862-45.772486 33.289174-62.416562 0-4.160763 4.160763-8.322549 8.322549-12.483312-4.161786 0-4.161786 0-8.322549 0-99.865475 0-178.926112 79.059614-178.926112 178.926112 0 45.772486 16.644075 87.382163 45.771463 120.671337C73.545016 479.890698 11.128455 575.59541 11.128455 683.783435l0 54.094012c0 20.805862 16.644075 37.449937 37.449937 37.449937l62.416562 0c0-24.966625 4.160763-49.933249 8.322549-70.737064L81.867566 704.59032l0-20.805862C81.867566 583.91796 148.443867 500.695536 244.149603 475.728912L244.149603 475.728912 244.149603 475.728912M855.827813 429.958472c29.127388-33.289174 45.771463-74.898851 45.771463-120.671337 0-95.704712-79.059614-178.926112-178.926112-178.926112-4.160763 0-4.160763 0-8.322549 0 4.161786 8.321526 8.322549 12.483312 8.322549 16.644075 12.483312 20.805862 24.966625 41.6107 33.289174 62.416562 41.6107 12.483312 74.898851 54.094012 74.898851 99.865475 0 41.6107-24.966625 79.059614-62.416562 95.704712-12.483312 4.160763-24.966625 16.644075-24.966625 33.288151 0 16.645099 12.483312 29.128411 24.966625 33.289174l8.321526 0c95.704712 24.966625 162.282037 108.188025 162.282037 203.892737l0 20.805862L901.598252 696.26777c4.161786 24.966625 8.322549 45.772486 8.322549 70.739111l62.416562 0c20.805862 0 37.449937-16.645099 37.449937-37.449937l0-54.095036C1009.786277 575.59541 947.370739 479.890698 855.827813 429.958472L855.827813 429.958472 855.827813 429.958472M855.827813 429.958472 855.827813 429.958472z" p-id="2436"></path></svg>